<?xml version="1.0" encoding="UTF-8"?>
<svg id="Layer_2" data-name="Layer 2" xmlns="http://www.w3.org/2000/svg" viewBox="0 0 400 400">
  <defs>
    <style>
      .cls-1 {
        fill: none;
      }
    </style>
  </defs>
  <g id="Layer_1-2" data-name="Layer 1">
    <g>
      <path d="M328.97,60.03H105.42c-4.75,0-8.6,5.22-8.6,11.66v46.66h-25.79c-4.75,0-8.6,5.22-8.6,11.66v174.96c0,19.3,11.57,34.99,25.79,34.99h214.95c18.96,0,34.39-20.93,34.39-46.66V71.7c0-6.44-3.85-11.66-8.6-11.66ZM79.63,141.68h17.2v163.3c0,6.43-3.86,11.66-8.6,11.66s-8.6-5.23-8.6-11.66v-163.3ZM320.37,293.31c0,12.86-7.71,23.33-17.2,23.33H112.51c.96-3.65,1.51-7.57,1.51-11.66V83.36h206.36v209.95Z"/>
      <path d="M147.87,188.34h51.59c4.73,0,8.6-5.25,8.6-11.66v-46.66c0-6.42-3.87-11.66-8.6-11.66h-51.59c-4.73,0-8.6,5.25-8.6,11.66v46.66c0,6.42,3.87,11.66,8.6,11.66Z"/>
      <path d="M234.39,141.68h55.89c4.75,0,8.6-5.22,8.6-11.66s-3.85-11.66-8.6-11.66h-55.89c-4.75,0-8.6,5.22-8.6,11.66s3.85,11.66,8.6,11.66Z"/>
      <path d="M234.39,188.34h55.89c4.75,0,8.6-5.22,8.6-11.66s-3.85-11.66-8.6-11.66h-55.89c-4.75,0-8.6,5.22-8.6,11.66s3.85,11.66,8.6,11.66Z"/>
      <path d="M144.11,234.99h146.17c4.75,0,8.6-5.22,8.6-11.66s-3.85-11.66-8.6-11.66h-146.17c-4.75,0-8.6,5.22-8.6,11.66s3.85,11.66,8.6,11.66Z"/>
      <path d="M290.28,258.32h-146.17c-4.75,0-8.6,5.22-8.6,11.66s3.85,11.66,8.6,11.66h146.17c4.75,0,8.6-5.22,8.6-11.66s-3.85-11.66-8.6-11.66Z"/>
    </g>
    <rect class="cls-1" width="400" height="400"/>
  </g>
</svg>