<?xml version="1.0" encoding="UTF-8"?>
<svg id="Layer_2" data-name="Layer 2" xmlns="http://www.w3.org/2000/svg" viewBox="0 0 400 400">
  <defs>
    <style>
      .cls-1 {
        fill: none;
      }
    </style>
  </defs>
  <g id="Layer_1-2" data-name="Layer 1">
    <path d="M316.39,316.39h-48.98v-76.72c0-18.29-.33-41.84-25.48-41.84s-29.42,19.94-29.42,40.49v78.07h-48.98v-157.76h47.02v21.57h.66c9.59-16.36,27.44-26.17,46.39-25.48,49.64,0,58.81,32.64,58.81,75.15l-.03,86.5v.03ZM108.27,137.05c-15.66-.08-28.34-12.74-28.43-28.4,0-15.59,12.84-28.43,28.43-28.43s28.4,12.84,28.43,28.43c0,15.59-12.84,28.43-28.43,28.43v-.03ZM132.76,316.39h-49.03v-157.76h49.03v157.76ZM340.77,34.72H59.1c-13.29-.08-24.17,10.56-24.38,23.86v282.85c.21,13.29,11.09,23.93,24.38,23.86h281.7c13.32.11,24.25-10.53,24.49-23.86V58.55c-.24-13.31-11.18-23.94-24.49-23.8l-.03-.03Z"/>
    <rect class="cls-1" width="400" height="400"/>
  </g>
</svg>