<?xml version="1.0" encoding="UTF-8"?>
<svg id="Layer_2" data-name="Layer 2" xmlns="http://www.w3.org/2000/svg" viewBox="0 0 400 400">
  <defs>
    <style>
      .cls-1 {
        fill: none;
      }
    </style>
  </defs>
  <g id="Layer_1-2" data-name="Layer 1">
    <path d="M169.39,215.53c-.79,2.08-1.83,3.88-3.12,5.38-1.28,1.53-2.84,2.71-4.68,3.56s-4.11,1.27-6.74,1.27c-3.7,0-6.77-.8-9.23-2.4-2.46-1.62-4.42-3.74-5.89-6.4-1.47-2.64-2.53-5.64-3.19-8.94-.67-3.3-.99-6.67-.99-10.08s.32-6.77.99-10.09c.66-3.32,1.73-6.31,3.19-8.94,1.47-2.66,3.43-4.78,5.89-6.4,2.46-1.62,5.54-2.4,9.23-2.4,3.21,0,5.84.6,7.88,1.82,2.03,1.24,3.67,2.66,4.9,4.27,1.23,1.62,2.08,3.23,2.56,4.9.47,1.64.8,2.96.99,3.9h30.38c-1.33-12.78-5.8-22.64-13.43-29.6-7.62-6.96-18.43-10.49-32.43-10.59-7.86,0-14.94,1.27-21.22,3.83-6.29,2.54-11.69,6.15-16.18,10.79-4.5,4.64-7.95,10.21-10.36,16.75-2.41,6.52-3.63,13.78-3.63,21.72,0,7.47,1.15,14.47,3.41,20.94,2.27,6.5,5.62,12.08,10.02,16.82,4.4,4.74,9.76,8.48,16.1,11.23,6.34,2.72,13.63,4.12,21.87,4.12,7.38,0,13.96-1.24,19.73-3.69,5.76-2.47,10.61-5.7,14.54-9.72s6.91-8.55,8.94-13.56c2.03-4.99,3.06-10.08,3.06-15.18h-30.68c-.46,2.37-1.09,4.63-1.9,6.7Z"/>
    <polygon points="252.94 208.7 252.65 208.7 236.04 147.23 204.53 147.23 234.77 248.59 269.69 248.59 301.36 147.23 269.27 147.23 252.94 208.7"/>
    <path d="M283.21,28.07H67.59v343.87h264.82V75.77l-49.2-47.71ZM309.51,349.03H90.49V50.96h180.92v36.33h38.1v261.74h0Z"/>
    <rect class="cls-1" width="400" height="400"/>
  </g>
</svg>