<?xml version="1.0" encoding="UTF-8"?>
<svg id="Layer_2" data-name="Layer 2" xmlns="http://www.w3.org/2000/svg" viewBox="0 0 400 400">
  <defs>
    <style>
      .cls-1 {
        fill: none;
      }
    </style>
  </defs>
  <g id="Layer_1-2" data-name="Layer 1">
    <path d="M267.78,256.41c-.49.16-1.02.41-1.31.61l-7.79,10.64c-5.24,7.19-15.52,11.66-26.83,11.66-5.82,0-11.53-1.19-16.5-3.45l-14.25-6.46c-.2-.04-.59-.09-1.11-.09s-.91.05-1.11.09l-14.25,6.46c-4.98,2.26-10.69,3.45-16.5,3.45-11.31,0-21.58-4.47-26.84-11.67l-7.77-10.63c-.29-.21-.83-.45-1.32-.61l-51.37,81.6c-2.78,4.41.17,6.6,6.54,4.87l25.98-7.05c6.37-1.73,13.59.54,16.03,5.05l9.97,18.37c2.44,4.51,6.72,4.58,9.49.18l51.15-81.25,51.16,81.25c2.78,4.41,7.05,4.33,9.5-.18l9.97-18.37c2.44-4.5,9.66-6.77,16.04-5.05l25.98,7.05c6.37,1.73,9.31-.46,6.53-4.87l-51.38-81.6Z"/>
    <path d="M306.49,163.61c-3.42-5.34-3.42-14.08,0-19.41l8.35-13.03c3.42-5.34,1.62-12.09-4.02-15l-13.74-7.11c-5.63-2.91-10-10.48-9.7-16.81l.72-15.46c.29-6.34-4.64-11.27-10.98-10.98l-15.46.72c-6.33.3-13.9-4.07-16.81-9.71l-7.11-13.75c-2.92-5.63-9.67-7.44-15-4.02l-13.02,8.35c-5.34,3.42-14.07,3.42-19.41,0l-13.03-8.35c-5.34-3.42-12.09-1.62-15,4.02l-7.1,13.75c-2.91,5.63-10.48,10-16.81,9.71l-15.46-.72c-6.33-.29-11.28,4.65-10.98,10.98l.72,15.46c.29,6.33-4.07,13.9-9.71,16.81l-13.75,7.11c-5.63,2.91-7.44,9.66-4.02,15l8.35,13.02c3.42,5.34,3.42,14.08,0,19.42l-8.35,13.02c-3.42,5.34-1.61,12.09,4.02,15l13.75,7.11c5.63,2.91,10,10.48,9.71,16.81l-.72,15.46c-.3,6.33,4.65,11.27,10.98,10.98l15.46-.72c6.33-.29,13.9,4.07,16.81,9.71l7.1,13.73c2.92,5.64,9.67,7.45,15.01,4.02l13.02-8.35c5.34-3.42,14.08-3.42,19.42,0l13.02,8.35c5.34,3.42,12.09,1.62,15-4.02l7.11-13.74c2.91-5.63,10.48-10,16.82-9.7l15.45.72c6.34.29,11.27-4.65,10.98-10.98l-.72-15.45c-.3-6.33,4.07-13.9,9.7-16.81l13.74-7.1c5.64-2.91,7.45-9.66,4.02-15l-8.35-13.02ZM200,228.84c-41.33,0-74.94-33.62-74.94-74.94s33.62-74.94,74.94-74.94,74.95,33.62,74.95,74.94-33.62,74.94-74.95,74.94Z"/>
    <path d="M200,95.61c-32.14,0-58.29,26.15-58.29,58.29s26.15,58.29,58.29,58.29,58.29-26.15,58.29-58.29-26.15-58.29-58.29-58.29Z"/>
    <rect class="cls-1" width="400" height="400"/>
  </g>
</svg>