<?xml version="1.0" encoding="UTF-8"?>
<svg id="Layer_2" data-name="Layer 2" xmlns="http://www.w3.org/2000/svg" viewBox="0 0 400 400">
  <defs>
    <style>
      .cls-1 {
        fill: none;
      }
    </style>
  </defs>
  <g id="Layer_1-2" data-name="Layer 1">
    <path d="M280.08,332.09c4.1-4.12,5.6-10.16,3.9-15.72l-8.65-36.32,10.57-10.57c2.7-2.7,2.7-7.06,0-9.76l-4.63-4.63c-2.7-2.7-7.06-2.7-9.76,0l-1.72,1.72-5.35-22.48,10.74-10.74c2.7-2.7,2.7-7.06,0-9.76l-4.63-4.63c-2.7-2.7-7.06-2.7-9.76,0l-1.88,1.88-6.71-28.15,57.78-58.06c11.26-11.32,13.96-24.15,11.95-37.66-.91-6.1-5.78-10.94-11.88-11.83-13.52-1.95-26.34.81-37.61,12.13l-57.78,58.06-27.75-6.47,1.89-1.89c2.7-2.7,2.7-7.06,0-9.76l-4.63-4.63c-2.7-2.7-7.06-2.7-9.76,0l-10.84,10.84-22.57-5.26,1.92-1.92c2.7-2.7,2.7-7.06,0-9.76l-4.63-4.63c-2.7-2.7-7.06-2.69-9.76,0l-10.86,10.86-36.59-8.53c-5.57-1.67-11.6-.14-15.7,3.98l-10.38,10.43c-3.58,3.6-2.7,9.63,1.76,12.05l111.31,51.51-16.96,17.04c-10.92,10.97-19.47,21.79-26.38,32.87l-51.67-6.23c-3.9-.47-7.74,1.24-9.99,4.46l-7.77,11.08c-1,1.42-.35,3.41,1.3,3.96l52.93,17.88c-.58,1.55-1.2,3.08-1.75,4.66-2.67,7.65,4.77,15.05,12.41,12.35,1.57-.56,3.1-1.18,4.65-1.77l18.14,52.84c.56,1.65,2.55,2.28,3.97,1.28l11.04-7.82c3.2-2.27,4.9-6.12,4.41-10.01l-6.48-51.64c11.04-6.96,21.82-15.56,32.74-26.54l16.96-17.04,52.04,111.06c2.44,4.45,8.48,5.3,12.06,1.7l10.38-10.43Z"/>
    <rect class="cls-1" width="400" height="400"/>
  </g>
</svg>